<svg width="161" height="36" viewBox="0 0 161 36" fill="none" xmlns="http://www.w3.org/2000/svg">
<path d="M52.9831 14L51.2079 17L49.4326 19.5L48.1011 21L46.3258 23L43.6629 25L41 26.5L37.4494 28H34.3427L31.236 27.5L28.573 26.5L25.4663 25L22.3596 23.5L19.2528 21.5L16.1461 19L13.927 16.5L11.7079 14L9.04494 11L5.9382 7.5L2.83146 3H1.5L3.27528 7L5.05056 10.5L7.26966 14L9.93258 18L13.0393 22L15.7022 25L17.9213 27L20.1404 28.5L22.3596 30L25.0225 31.5L27.6854 32.5L30.7921 33.5L34.3427 34.5L37.0056 35H40.1124L42.3315 34L44.9944 32.5L47.6573 30L49.4326 28.5L51.6517 26.5L54.3146 23.5L56.0899 21.5L56.9775 20L57.4213 19L58.7528 21L60.0843 23L62.3034 25L64.5225 27L67.1854 29.5L70.736 31.5L74.7303 33L77.8371 33.5H81.8315L85.8258 33L89.3764 32.5L91.5955 31.5L94.7022 29.5L97.809 27L100.028 25L102.691 22L103.579 20.5L104.91 18.5L106.242 20.5L107.573 22.5L109.792 25L112.899 28L115.562 30L118.225 32L120.888 33.5L123.107 34L125.77 34.5H128.876L131.096 34L134.202 32.5L138.197 30.5L141.303 28L145.742 24L149.292 19.5L152.843 14.5L155.062 10.5L156.837 7L158.612 3.5L159.5 1H147.073V3.5L146.629 6L145.298 9L143.966 11.5L142.191 14.5L140.416 17L138.64 19.5L136.421 22L134.202 24L131.539 25.5L128.433 26.5H124.882L122.219 26L119.556 25L116.893 23.5L114.674 22L112.455 20.5L109.792 18.5L107.573 16.5L105.354 14L103.579 12L101.803 10L100.472 8L98.2528 5L97.3652 3.5H95.5899L100.028 11L99.1404 12.5L97.809 14.5L96.4775 16.5L95.1461 18.5L93.3708 20.5L90.7079 22.5L87.6011 24.5L84.0506 26L80.5 26.5L76.0618 26L72.5112 25L69.4045 23.5L65.4101 21L60.5281 17L57.4213 14L54.3146 10.5L48.9888 4.5H47.2135L52.9831 14Z" fill="#8F8FD2" stroke="#8F8FD2"/>
</svg>
