<svg width="160" height="34" viewBox="0 0 160 34" fill="none" xmlns="http://www.w3.org/2000/svg">
<path d="M1 23.25H7.00585L8.8538 24L11.1637 25.25L12.5497 26L14.3977 26.75L17.1696 27.5L19.4795 28L21.7895 28.5L23.6374 28.75L25.9474 29H28.7193H31.4912L34.2632 28.75L36.1111 28.5L38.4211 28L39.807 27.75L41.655 27L43.0409 26.5L44.8889 26L46.7368 25.25L48.1228 24.5L49.5088 23.75L50.4327 23H58.2865L59.2105 23.75L60.5965 24.5L62.4444 25.5L64.2924 26.25L66.6023 27.25L69.3743 28L72.6082 28.5L74.9181 28.75L77.6901 29H80H82.3099L84.6199 28.75L86.4678 28.5L88.7778 28L90.6257 27.5L92.4737 27L94.7836 26.25L96.1696 25.75L97.5556 25.25L98.9415 24.5L100.327 23.75L101.251 23H110.029L110.491 23.75L112.339 25L114.187 26L116.959 27L119.731 27.75L122.041 28.25L124.813 28.75L127.585 29H130.357H133.129L135.439 28.75L137.749 28.5L139.596 28L141.444 27.5L143.292 27L144.678 26.5L146.064 26L147.45 25.5L149.298 24.75L150.684 24L152.07 23.25H159V24.5L158.076 25.25L156.69 26L155.304 26.75L153.918 27.5L151.608 28.5L149.298 29.5L146.526 30.5L144.678 31L141.906 31.75L139.596 32.25L137.287 32.75L134.515 33H132.205H129.895H127.585L124.813 32.75L122.965 32.5L121.117 32.25L119.269 32L117.421 31.75L116.035 31.5L114.187 31L112.339 30.25L109.105 29L108.181 28.5L105.871 27.25H103.561L102.175 28L100.327 29L97.5556 30L94.3216 31L91.5497 31.75L88.7778 32.25L86.4678 32.75L83.6959 33H80H77.6901H74.4561L72.6082 32.75L69.3743 32.25L66.6023 31.75L63.8304 31L61.5205 30.25L59.2105 29.5L57.3626 28.5L55.5146 27.25L54.5906 26.75H53.2047L52.2807 27.25L50.8947 27.75L49.5088 28.5L48.1228 29L46.2749 29.75L43.9649 30.5L42.117 31L39.807 31.75L37.0351 32.25L34.2632 32.75L31.4912 33H28.7193H25.4854H23.6374L20.4035 32.75L18.0936 32.25L16.2456 31.75L13.4737 31L11.1637 30.25L9.31579 29.5L7.00585 28.5L5.61988 28L4.23392 27.25L3.30994 26.75L2.38596 26L1 25V23.25Z" fill="#8F8FD2" stroke="#8F8FD2"/>
</svg>
