<svg width="158" height="69" viewBox="0 0 158 69" fill="none" xmlns="http://www.w3.org/2000/svg">
<mask id="path-1-inside-1_1_13" fill="white">
<path d="M55.8662 52.9613C53.0584 58.0111 49.1471 62.1432 44.5156 64.9525C39.8841 67.7619 34.6914 69.152 29.4463 68.9868C24.2013 68.8216 19.0839 67.1067 14.5957 64.0101C10.1076 60.9135 6.40267 56.5415 3.84414 51.3226L9.89667 47.4715C11.8695 51.4957 14.7263 54.8668 18.187 57.2545C21.6477 59.6423 25.5936 60.9646 29.6379 61.092C33.6823 61.2194 37.6863 60.1475 41.2575 57.9813C44.8288 55.815 47.8447 52.6289 50.0097 48.7351L55.8662 52.9613Z"/>
</mask>
<path d="M55.8662 52.9613C53.0584 58.0111 49.1471 62.1432 44.5156 64.9525C39.8841 67.7619 34.6914 69.152 29.4463 68.9868C24.2013 68.8216 19.0839 67.1067 14.5957 64.0101C10.1076 60.9135 6.40267 56.5415 3.84414 51.3226L9.89667 47.4715C11.8695 51.4957 14.7263 54.8668 18.187 57.2545C21.6477 59.6423 25.5936 60.9646 29.6379 61.092C33.6823 61.2194 37.6863 60.1475 41.2575 57.9813C44.8288 55.815 47.8447 52.6289 50.0097 48.7351L55.8662 52.9613Z" fill="#9293D9" stroke="#8F8FD2" stroke-width="2" mask="url(#path-1-inside-1_1_13)"/>
<mask id="path-2-inside-2_1_13" fill="white">
<path d="M153.3 52.9613C150.555 57.8975 146.755 61.9586 142.256 64.7639C137.756 67.5692 132.705 69.0267 127.577 68.9996C122.448 68.9726 117.409 67.462 112.933 64.6094C108.456 61.7568 104.689 57.6557 101.985 52.6908L107.876 48.5265C109.961 52.3549 112.865 55.5171 116.317 57.7167C119.768 59.9162 123.654 61.081 127.609 61.1019C131.563 61.1227 135.458 59.9989 138.927 57.8358C142.397 55.6727 145.327 52.5413 147.443 48.7351L153.3 52.9613Z"/>
</mask>
<path d="M153.3 52.9613C150.555 57.8975 146.755 61.9586 142.256 64.7639C137.756 67.5692 132.705 69.0267 127.577 68.9996C122.448 68.9726 117.409 67.462 112.933 64.6094C108.456 61.7568 104.689 57.6557 101.985 52.6908L107.876 48.5265C109.961 52.3549 112.865 55.5171 116.317 57.7167C119.768 59.9162 123.654 61.081 127.609 61.1019C131.563 61.1227 135.458 59.9989 138.927 57.8358C142.397 55.6727 145.327 52.5413 147.443 48.7351L153.3 52.9613Z" fill="#9293D9" stroke="#8F8FD2" stroke-width="2" mask="url(#path-2-inside-2_1_13)"/>
<mask id="path-3-inside-3_1_13" fill="white">
<path d="M104.144 52.9613C101.427 57.848 97.6749 61.8779 93.2331 64.6805C88.7913 67.483 83.8022 68.9682 78.7248 68.9995C73.6473 69.0308 68.6444 67.6071 64.1763 64.8594C59.7081 62.1116 55.9181 58.1281 53.1549 53.2752L58.971 48.9771C61.1016 52.7191 64.024 55.7907 67.4693 57.9094C70.9146 60.0281 74.7722 61.1259 78.6873 61.1018C82.6024 61.0777 86.4494 59.9325 89.8744 57.7715C93.2994 55.6105 96.1924 52.5031 98.2875 48.7351L104.144 52.9613Z"/>
</mask>
<path d="M104.144 52.9613C101.427 57.848 97.6749 61.8779 93.2331 64.6805C88.7913 67.483 83.8022 68.9682 78.7248 68.9995C73.6473 69.0308 68.6444 67.6071 64.1763 64.8594C59.7081 62.1116 55.9181 58.1281 53.1549 53.2752L58.971 48.9771C61.1016 52.7191 64.024 55.7907 67.4693 57.9094C70.9146 60.0281 74.7722 61.1259 78.6873 61.1018C82.6024 61.0777 86.4494 59.9325 89.8744 57.7715C93.2994 55.6105 96.1924 52.5031 98.2875 48.7351L104.144 52.9613Z" fill="#9293D9" stroke="#8F8FD2" stroke-width="2" mask="url(#path-3-inside-3_1_13)"/>
<path d="M58.8111 48.5H50.0333V53H58.8111V48.5Z" fill="#9293D9" stroke="#8F8FD2"/>
<path d="M107.967 49H98.3111V53H107.967V49Z" fill="#9293D9" stroke="#8F8FD2"/>
</svg>
