<svg width="160" height="34" viewBox="0 0 160 34" fill="none" xmlns="http://www.w3.org/2000/svg">
<path d="M1 13.5H7.00585L8.8538 15L11.1637 17.5L12.5497 19L14.3977 20.5L17.1696 22L19.4795 23L21.7895 24L23.6374 24.5L25.9474 25H28.7193H31.4912L34.2632 24.5L36.1111 24L38.4211 23L39.807 22.5L41.655 21L43.0409 20L44.8889 19L46.7368 17.5L48.1228 16L49.5088 14.5L50.4327 13H58.2865L59.2105 14.5L60.5965 16L62.4444 18L64.2924 19.5L66.6023 21.5L69.3743 23L72.6082 24L74.9181 24.5L77.6901 25H80H82.3099L84.6199 24.5L86.4678 24L88.7778 23L90.6257 22L92.4737 21L94.7836 19.5L96.1696 18.5L97.5556 17.5L98.9415 16L100.327 14.5L101.251 13H110.029L110.491 14.5L112.339 17L114.187 19L116.959 21L119.731 22.5L122.041 23.5L124.813 24.5L127.585 25H130.357H133.129L135.439 24.5L137.749 24L139.596 23L141.444 22L143.292 21L144.678 20L146.064 19L147.45 18L149.298 16.5L150.684 15L152.07 13.5H159V16L158.076 17.5L156.69 19L155.304 20.5L153.918 22L151.608 24L149.298 26L146.526 28L144.678 29L141.906 30.5L139.596 31.5L137.287 32.5L134.515 33H132.205H129.895H127.585L124.813 32.5L122.965 32L121.117 31.5L119.269 31L117.421 30.5L116.035 30L114.187 29L112.339 27.5L109.105 25L108.181 24L105.871 21.5H103.561L102.175 23L100.327 25L97.5556 27L94.3216 29L91.5497 30.5L88.7778 31.5L86.4678 32.5L83.6959 33H80H77.6901H74.4561L72.6082 32.5L69.3743 31.5L66.6023 30.5L63.8304 29L61.5205 27.5L59.2105 26L57.3626 24L55.5146 21.5L54.5906 20.5H53.2047L52.2807 21.5L50.8947 22.5L49.5088 24L48.1228 25L46.2749 26.5L43.9649 28L42.117 29L39.807 30.5L37.0351 31.5L34.2632 32.5L31.4912 33H28.7193H25.4854H23.6374L20.4035 32.5L18.0936 31.5L16.2456 30.5L13.4737 29L11.1637 27.5L9.31579 26L7.00585 24L5.61988 23L4.23392 21.5L3.30994 20.5L2.38596 19L1 17V13.5Z" fill="#8F8FD2" stroke="#8F8FD2"/>
</svg>
